Coordinates
version=1
nRows=30
nColumns=38
inDegrees=no

Units are S.I. units (second, meters, Newtons, ...)
If the header above contains a line with 'inDegrees', this indicates whether rotational values are in degrees (yes) or radians (no).

endheader
time	pelvis_tilt	pelvis_list	pelvis_rotation	pelvis_tx	pelvis_ty	pelvis_tz	hip_flexion_r	hip_adduction_r	hip_rotation_r	knee_angle_r	ankle_angle_r	subtalar_angle_r	mtp_angle_r	hip_flexion_l	hip_adduction_l	hip_rotation_l	knee_angle_l	ankle_angle_l	subtalar_angle_l	mtp_angle_l	lumbar_extension	lumbar_bending	lumbar_rotation	arm_flex_r	arm_add_r	arm_rot_r	elbow_flex_r	pro_sup_r	wrist_flex_r	wrist_dev_r	arm_flex_l	arm_add_l	arm_rot_l	elbow_flex_l	pro_sup_l	wrist_flex_l	wrist_dev_l
0.52	0.54596	1.50844	1.1648	0.737596	0.0196521	1.01863	-0.284794	0.0623757	-0.355789	0.132149	-0.0984413	0	0	0.35771	-0.0192948	-0.192	0	-0.186323	0	0	-0.132275	0.0266803	0.169586	-0.0579573	-0.312645	-0.0936642	1.04301	1.56761	0	0	-0.202916	-0.287798	0.627894	0.521549	0.896304	0	0
0.53	0.558695	1.51876	1.14341	0.737233	0.0342077	1.01736	-0.300959	0.052656	-0.351131	0.151333	-0.115736	0	0	0.346546	-0.0145201	-0.202171	0	-0.198562	0	0	-0.143577	0.0188489	0.169506	-0.0548628	-0.308021	-0.0890584	1.0373	1.5708	0	0	-0.198268	-0.286899	0.629808	0.517544	0.893642	0	0
0.54	0.557781	1.52299	1.13722	0.736659	0.0493256	1.01568	-0.311185	0.0447776	-0.343377	0.169031	-0.11334	0	0	0.341273	-0.0114597	-0.203775	0.00734812	-0.199343	0	0	-0.145532	0.0132939	0.168868	-0.056508	-0.302444	-0.0863818	1.03048	1.5708	0	0	-0.194429	-0.287796	0.640173	0.514404	0.884098	0	0
0.55	0.575704	1.52844	1.11076	0.736053	0.0648577	1.01426	-0.321329	0.0353252	-0.333566	0.190399	-0.12668	0	0	0.336724	-0.0106868	-0.219339	0.0391988	-0.210744	0	0	-0.148227	0.0080362	0.169109	-0.0592052	-0.297355	-0.0824084	1.02238	1.5708	0	0	-0.192132	-0.288004	0.645067	0.513081	0.877165	0	0
0.56	0.591104	1.53283	1.08554	0.735412	0.0806218	1.01299	-0.328293	0.0244549	-0.319036	0.215374	-0.145506	0	0	0.332362	-0.0102508	-0.234463	0.0660377	-0.235569	0	0	-0.14884	0.00318231	0.170456	-0.0628355	-0.292761	-0.0771314	1.0122	1.5708	0	0	-0.190098	-0.287761	0.649876	0.511439	0.87104	0	0
0.57	0.567867	1.5362	1.09856	0.734686	0.0963173	1.012	-0.329512	0.0109665	-0.300019	0.247998	-0.166631	0	0	0.330568	-0.00901165	-0.247271	0.0896615	-0.266457	0	0	-0.147564	-0.00256609	0.171441	-0.0655238	-0.288146	-0.0700207	0.9984	1.5708	0	0	-0.187652	-0.286714	0.652858	0.508592	0.866836	0	0
0.58	0.469314	1.53836	1.18722	0.733893	0.111727	1.01139	-0.324951	-0.00545633	-0.274446	0.285796	-0.198381	0	0	0.333504	-0.00849124	-0.261366	0.119143	-0.290638	0	0	-0.145028	-0.0103293	0.169023	-0.0654351	-0.283124	-0.0589965	0.978732	1.5708	0	0	-0.195971	-0.270451	0.574615	0.501477	0.935098	0	0
0.59	0.292523	1.53759	1.35562	0.733035	0.126887	1.0111	-0.313143	-0.0239655	-0.244688	0.328427	-0.245549	0	0	0.341143	-0.00971643	-0.276598	0.156755	-0.284308	0	0	-0.138254	-0.0195934	0.166676	-0.0640855	-0.277186	-0.0479504	0.956667	1.5708	0	0	-0.186075	-0.27717	0.61759	0.499747	0.887728	0	0
0.6	0.0694661	1.53526	1.57289	0.732131	0.1417	1.01109	-0.29648	-0.0442046	-0.218581	0.375486	-0.287263	0	0	0.348803	-0.00912387	-0.285218	0.19733	-0.265645	0	0	-0.132253	-0.0312479	0.160212	-0.0620242	-0.268742	-0.0385079	0.931867	1.5708	0	0	-0.182845	-0.276479	0.609163	0.49935	0.888238	0	0
0.61	-0.167973	1.53201	1.80906	0.73114	0.156104	1.01151	-0.277742	-0.0643165	-0.199118	0.42464	-0.332492	0	0	0.355506	-0.00499891	-0.286739	0.240085	-0.244747	0	0	-0.128945	-0.0449396	0.14927	-0.0591316	-0.258191	-0.0310695	0.906133	1.5708	0	0	-0.178542	-0.279036	0.601368	0.503923	0.888877	0	0
0.62	-0.380357	1.52591	2.02167	0.730152	0.170151	1.01218	-0.254586	-0.0843513	-0.181559	0.477946	-0.36184	0	0	0.361787	0.00214165	-0.286097	0.280554	-0.231201	0	0	-0.125815	-0.0598939	0.137328	-0.0566333	-0.246389	-0.0261714	0.87982	1.5708	0	0	-0.17192	-0.284848	0.601977	0.511619	0.882615	0	0
0.63	-0.517593	1.51892	2.15772	0.72922	0.18397	1.01291	-0.227553	-0.102437	-0.163716	0.533021	-0.41706	0	0	0.367545	0.00820243	-0.289476	0.319683	-0.212867	0	0	-0.122408	-0.0728973	0.127611	-0.0556923	-0.236186	-0.021144	0.854677	1.5708	0	0	-0.164596	-0.290484	0.601803	0.520677	0.878799	0	0
0.64	-0.59587	1.5127	2.23206	0.728287	0.197463	1.01351	-0.196159	-0.118219	-0.144947	0.591695	-0.476191	0	0	0.369889	0.0135722	-0.290983	0.349965	-0.194722	0	0	-0.118956	-0.0824269	0.121766	-0.0568815	-0.229082	-0.0158659	0.832523	1.5708	0	0	-0.156167	-0.295172	0.602113	0.530692	0.877126	0	0
0.65	-0.64748	1.50921	2.27541	0.72757	0.210673	1.01409	-0.162527	-0.131269	-0.125857	0.651591	-0.541671	0	0	0.367531	0.0157439	-0.297077	0.374165	-0.175619	0	0	-0.117251	-0.0881985	0.121261	-0.0600813	-0.224815	-0.0106719	0.814313	1.5708	0	0	-0.145924	-0.298773	0.603506	0.5413	0.877908	0	0
0.66	-0.703689	1.50889	2.32007	0.727126	0.223719	1.01492	-0.129656	-0.142009	-0.110422	0.707599	-0.626178	0	0	0.358268	0.015621	-0.306969	0.391038	-0.154832	0	0	-0.119009	-0.0916387	0.123896	-0.0634436	-0.222417	-0.00402391	0.798348	1.5708	0	0	-0.140168	-0.293974	0.566794	0.550931	0.916328	0	0
0.67	-0.76459	1.51063	2.36669	0.726951	0.236644	1.01596	-0.0969757	-0.150634	-0.0983135	0.761567	-0.683586	0	0	0.343616	0.0136599	-0.320013	0.401687	-0.138621	0	0	-0.122548	-0.0931865	0.129714	-0.0676637	-0.221107	0.00265225	0.783863	1.5708	0	0	-0.126687	-0.298438	0.576092	0.563753	0.91283	0	0
0.68	-0.820366	1.51441	2.40721	0.726924	0.249472	1.01728	-0.0651823	-0.156366	-0.0874594	0.813556	-0.698132	0	0	0.324948	0.0101959	-0.333342	0.406613	-0.124198	0	0	-0.127453	-0.0924235	0.135592	-0.070645	-0.220955	0.0121928	0.768802	1.5708	0	0	-0.114375	-0.301834	0.578654	0.577561	0.91642	0	0
0.69	-0.82191	1.51817	2.39185	0.727229	0.262032	1.01865	-0.0319335	-0.157114	-0.0569141	0.865023	-0.698132	0	0	0.306905	0.00464963	-0.347298	0.406717	-0.110162	0	0	-0.12974	-0.089395	0.14168	-0.0715021	-0.221216	0.0252694	0.751302	1.5708	0	0	-0.103322	-0.304208	0.575655	0.591512	0.925449	0	0
0.7	-0.786525	1.5224	2.33985	0.727674	0.274368	1.02025	0.000753287	-0.153883	-0.0192212	0.913486	-0.679803	0	0	0.288323	-0.00208474	-0.36177	0.402625	-0.0976143	0	0	-0.131095	-0.0846286	0.145639	-0.0693805	-0.222037	0.0434293	0.730574	1.5708	0	0	-0.0948516	-0.30551	0.562774	0.606805	0.942	0	0
0.71	-0.733516	1.52667	2.273	0.727988	0.286575	1.02212	0.0322712	-0.149281	0.0116854	0.959325	-0.624785	0	0	0.268782	-0.00842251	-0.375416	0.395175	-0.0884333	0	0	-0.13236	-0.0792251	0.145181	-0.0649413	-0.222703	0.0658384	0.707354	1.5708	0	0	-0.0901698	-0.305671	0.53717	0.624403	0.968477	0	0
0.72	-0.652411	1.53018	2.18174	0.728023	0.298686	1.02411	0.0631213	-0.144097	0.034992	1.00136	-0.558135	0	0	0.250125	-0.0138994	-0.385415	0.386498	-0.0823369	0	0	-0.132689	-0.073204	0.140132	-0.0593162	-0.223445	0.0915268	0.682796	1.5708	0	0	-0.0890568	-0.303242	0.498694	0.642565	1.00793	0	0
0.73	-0.540404	1.53282	2.0634	0.727686	0.310721	1.02617	0.0930002	-0.138886	0.0500384	1.03758	-0.496335	0	0	0.232733	-0.0185041	-0.39026	0.377367	-0.0787383	0	0	-0.132209	-0.0661969	0.131384	-0.0543088	-0.223971	0.116232	0.659124	1.5708	0	0	-0.0893115	-0.299597	0.455834	0.661462	1.05129	0	0
0.74	-0.421969	1.53585	1.94155	0.727137	0.32268	1.02842	0.119823	-0.133156	0.0604216	1.06696	-0.434177	0	0	0.214727	-0.0227458	-0.392878	0.368374	-0.0769141	0	0	-0.13361	-0.0590055	0.118556	-0.0479673	-0.227172	0.150755	0.636408	1.5708	0	0	-0.100498	-0.278955	0.349443	0.681316	1.15656	0	0
0.75	-0.313947	1.54136	1.83258	0.726445	0.33458	1.03109	0.141003	-0.127418	0.0668924	1.08743	-0.398039	0	0	0.193397	-0.0268341	-0.397946	0.359657	-0.0776602	0	0	-0.139186	-0.0511085	0.107603	-0.0479215	-0.225896	0.160566	0.620846	1.5708	0	0	-0.0939907	-0.284139	0.340799	0.704413	1.1677	0	0
0.76	-0.185106	1.54704	1.70529	0.725663	0.346467	1.03395	0.159518	-0.122941	0.0679746	1.10115	-0.354568	0	0	0.17103	-0.0290795	-0.399786	0.349863	-0.0797487	0	0	-0.14594	-0.0438827	0.0944207	-0.0477852	-0.225924	0.175192	0.606583	1.5708	0	0	-0.0897272	-0.286395	0.319428	0.728308	1.18939	0	0
0.77	0.0170109	1.55217	1.50602	0.72483	0.358365	1.03687	0.176532	-0.119099	0.0650265	1.10857	-0.316198	0	0	0.147953	-0.0303979	-0.399265	0.338707	-0.0828891	0	0	-0.152742	-0.0366263	0.080667	-0.04892	-0.225598	0.186388	0.594101	1.5708	0	0	-0.0873978	-0.285756	0.28814	0.75293	1.21875	0	0
0.78	0.68398	1.56331	0.84666	0.723333	0.370809	1.04043	0.18639	-0.124132	-0.000863993	1.11017	-0.295385	0	0	0.114368	-0.0299624	-0.398111	0.323885	-0.087698	0	0	-0.168127	-0.0288659	0.062869	-0.0526078	-0.226004	0.192573	0.586749	1.5708	0	0	-0.0851059	-0.28575	0.259842	0.779121	1.24774	0	0
0.79	0.846086	1.55677	0.68288	0.72327	0.382051	1.04264	0.207458	-0.110313	0.0545237	1.10761	-0.248853	0	0	0.0999142	-0.03361	-0.396616	0.311255	-0.093228	0	0	-0.166713	-0.0215177	0.0532305	-0.0536853	-0.223465	0.197451	0.573883	1.5708	0	0	-0.0912277	-0.265562	0.174538	0.802482	1.33533	0	0
0.8	1.82423	1.55436	-0.285325	0.72164	0.394434	1.04607	0.214688	-0.115949	-0.0283174	1.10077	-0.222557	0	0	0.0654591	-0.0346062	-0.39306	0.293877	-0.10107	0	0	-0.18314	-0.012297	0.0337286	-0.0593552	-0.222805	0.194672	0.570422	1.5708	0	0	-0.0895347	-0.264946	0.148783	0.830525	1.35815	0	0
0.81	1.78723	1.54849	-0.245499	0.720973	0.40621	1.04832	0.23219	-0.110258	-0.0373921	1.09108	-0.189827	0	0	0.0460583	-0.0382067	-0.391394	0.279449	-0.106428	0	0	-0.185317	-0.00351244	0.021419	-0.0646877	-0.22099	0.191711	0.563486	1.5708	0	0	-0.0880302	-0.266331	0.12984	0.856607	1.37138	0	0
